<?xml version="1.0" encoding="iso-8859-1"?>
<!-- Generator: Adobe Illustrator 19.0.0, SVG Export Plug-In . SVG Version: 6.00 Build 0)  -->
<svg version="1.1" id="Layer_1" xmlns="http://www.w3.org/2000/svg" xmlns:xlink="http://www.w3.org/1999/xlink" x="0px" y="0px"
	 viewBox="0 0 504 504" style="enable-background:new 0 0 504 504;" xml:space="preserve">
<g>
	<g>
		<path d="M250.8,176h-55.2c-10.4,0-19.2,7.6-19.2,18c0,10.4,8.8,18,19.2,18h55.2c10.4,0,19.2-7.6,19.2-18
			C270,183.6,261.6,176,250.8,176z"/>
	</g>
</g>
<g>
	<g>
		<path d="M308,288H195.6c-10.4,0-19.2,9.6-19.2,20c0,10.4,8.4,20,19.2,20H308c10.4,0,18.8-9.6,18.8-20
			C326.8,297.6,318.4,288,308,288z"/>
	</g>
</g>
<g>
	<g>
		<path d="M377.6,0H126C56.8,0,0,56.8,0,126.4V378c0,69.2,56.8,126,126,126h251.6c69.6,0,126.4-56.8,126.4-126.4V126.4
			C504,56.8,447.2,0,377.6,0z M408.8,309.6c-0.4,54.4-45.2,98.4-100,98.4H194.4c-54.8,0-98.4-43.6-98.4-98V194
			c0-54.4,43.6-98,98.4-98H264c25.6,0,63.2,24.4,76.8,53.6c3.6,8,6,9.2,8.8,33.6c1.6,12.4,2.4,21.6,8,26.8c8,7.2,37.2,2.4,43.2,6.8
			l4.4,3.6l2.8,5.6l0.8,4V309.6z"/>
	</g>
</g>
<g>
</g>
<g>
</g>
<g>
</g>
<g>
</g>
<g>
</g>
<g>
</g>
<g>
</g>
<g>
</g>
<g>
</g>
<g>
</g>
<g>
</g>
<g>
</g>
<g>
</g>
<g>
</g>
<g>
</g>
</svg>
