<svg height="512pt" viewBox="-28 0 512 512" width="512pt" xmlns="http://www.w3.org/2000/svg"><path d="m336.050781 504.5h-216c-37.875 0-68.578125-30.703125-68.578125-68.578125v-284.578125h353.15625v284.578125c0 37.875-30.703125 68.578125-68.578125 68.578125zm0 0" fill="#d8d7da"/><path d="m120.046875 504.5h53.007813s.003906-138.929688.003906-186.953125c0-15.914063 6.777344-31.125 18.753906-41.601563 38.941406-34.050781 50.324219-66.375 50.324219-66.375v-58.226562h-190.664063v284.578125c0 37.875 30.703125 68.578125 68.574219 68.578125zm0 0" fill="#c6c5ca"/><path d="m179.613281 158.878906v-56.207031c0-26.710937 21.730469-48.4375 48.4375-48.4375s48.4375 21.726563 48.4375 48.4375v56.207031h46.734375v-56.207031c0-52.34375-42.828125-95.171875-95.171875-95.171875s-95.171875 42.828125-95.171875 95.171875v56.207031zm0 0" fill="#d8d7da"/><path d="m408.285156 209.570312h-360.46875c-22.175781 0-40.316406-18.140624-40.316406-40.316406 0-22.175781 18.140625-40.316406 40.316406-40.316406h360.46875c22.175782 0 40.316406 18.140625 40.316406 40.316406 0 22.175782-18.140624 40.316406-40.316406 40.316406zm0 0" fill="#eaeaea"/><path d="m88.429688 169.253906c0-22.175781 18.144531-40.316406 40.316406-40.316406h-80.929688c-22.175781 0-40.316406 18.140625-40.316406 40.316406 0 22.175782 18.140625 40.316406 40.316406 40.316406h80.929688c-22.171875 0-40.316406-18.140624-40.316406-40.316406zm0 0" fill="#d8d7da"/><path d="m126.300781 268.996094c-14.425781 0-26.230469 11.804687-26.230469 26.230468v206.308594c6.324219 1.921875 13.027344 2.964844 19.980469 2.964844h32.480469v-209.273438c0-14.425781-11.800781-26.230468-26.230469-26.230468zm0 0" fill="#acabb1"/><path d="m228.050781 268.996094c-14.425781 0-26.230469 11.804687-26.230469 26.230468v209.273438h52.460938v-209.273438c0-14.425781-11.804688-26.230468-26.230469-26.230468zm0 0" fill="#c6c5ca"/><path d="m329.800781 268.996094c-14.425781 0-26.230469 11.804687-26.230469 26.230468v209.273438h32.484376c6.949218 0 13.65625-1.042969 19.976562-2.964844v-206.308594c0-14.425781-11.804688-26.230468-26.230469-26.230468zm0 0" fill="#c6c5ca"/><path d="m456.101562 169.253906c0-26.367187-21.449218-47.816406-47.816406-47.816406h-124.296875v-18.765625c0-30.84375-25.09375-55.9375-55.9375-55.9375s-55.9375 25.09375-55.9375 55.9375v18.765625h-31.734375v-18.765625c0-48.34375 39.332032-87.671875 87.671875-87.671875 22.558594 0 44.027344 8.644531 60.457031 24.339844 16.378907 15.644531 26.003907 36.597656 27.109376 59 .203124 4.136718 3.734374 7.335937 7.859374 7.121094 4.136719-.203126 7.324219-3.722657 7.121094-7.859376-1.292968-26.253906-12.5625-50.796874-31.726562-69.109374-19.234375-18.375-44.386719-28.492188-70.820313-28.492188-56.613281 0-102.667969 46.058594-102.667969 102.671875v18.765625h-77.566406c-26.367187 0-47.816406 21.449219-47.816406 47.816406 0 25.070313 19.398438 45.683594 43.972656 47.648438v219.019531c0 41.949219 34.128906 76.078125 76.078125 76.078125h216c7.558594 0 14.859375-1.125 21.757813-3.1875.203125-.046875.40625-.105469.605468-.171875 31.070313-9.574219 53.714844-38.546875 53.714844-72.71875v-219.019531c24.574219-1.964844 43.972656-22.578125 43.972656-47.648438zm-268.988281-66.582031c0-22.574219 18.367188-40.9375 40.9375-40.9375 22.570313 0 40.9375 18.363281 40.9375 40.9375v18.765625h-81.875zm-79.542969 393.042969v-200.488282c0-10.328124 8.402344-18.730468 18.730469-18.730468s18.730469 8.402344 18.730469 18.730468v201.773438h-24.980469c-4.277343 0-8.449219-.445312-12.480469-1.285156zm101.75 1.285156v-201.773438c0-10.328124 8.402344-18.730468 18.730469-18.730468s18.730469 8.402344 18.730469 18.730468v201.773438zm198.964844-294.929688h-303.1875c-4.140625 0-7.5 3.359376-7.5 7.5 0 4.140626 3.359375 7.5 7.5 7.5h292.03125v218.851563c0 23.796875-13.6875 44.445313-33.597656 54.519531v-195.214844c0-18.597656-15.132812-33.730468-33.730469-33.730468-18.597656 0-33.730469 15.132812-33.730469 33.730468v175.410157c0 4.144531 3.359376 7.5 7.5 7.5 4.140626 0 7.5-3.355469 7.5-7.5v-175.410157c0-10.328124 8.402344-18.730468 18.730469-18.730468s18.730469 8.402344 18.730469 18.730468v200.488282c-4.027344.839844-8.203125 1.285156-12.476562 1.285156h-74.273438v-201.773438c0-18.597656-15.128906-33.730468-33.730469-33.730468-18.601562 0-33.730469 15.132812-33.730469 33.730468v201.773438h-34.285156v-201.773438c0-18.597656-15.132812-33.730468-33.734375-33.730468-18.597656 0-33.730469 15.132812-33.730469 33.730468v195.214844c-19.910156-10.074218-33.597656-30.722656-33.597656-54.519531v-218.851563h10.925782c4.140624 0 7.5-3.359374 7.5-7.5 0-4.140624-3.359376-7.5-7.5-7.5h-22.082032c-18.09375 0-32.816406-14.722656-32.816406-32.816406s14.722656-32.816406 32.816406-32.816406h85.0625 275.40625c18.097656 0 32.816406 14.722656 32.816406 32.816406 0 18.097656-14.71875 32.816406-32.816406 32.816406zm0 0"/></svg>