<svg height="512pt" viewBox="0 0 512.00046 512" width="512pt" xmlns="http://www.w3.org/2000/svg"><path d="m485.203125 70.335938-43.535156-43.539063c-25.777344-25.773437-67.5625-25.773437-93.335938 0l-99.140625 99.136719 136.875 136.875 99.136719-99.136719c25.773437-25.777344 25.773437-67.5625 0-93.335937zm0 0" fill="#ffc7de"/><path d="m478.296875 170.574219c-85.335937-83.882813-61.429687-126.484375-37.882813-145-25.859374-24.539063-66.726562-24.136719-92.085937 1.222656l-99.136719 99.136719 136.875 136.875zm0 0" fill="#ffb0d0"/><path d="m102.746094 501.8125-52.207032 2.636719c-24.230468 1.21875-44.210937-18.757813-42.988281-42.988281l2.632813-52.207032c1.515625-30.035156 14.128906-58.441406 35.398437-79.710937l249.558594-249.558594 136.875 136.875-249.5625 249.558594c-21.265625 21.265625-49.667969 33.878906-79.707031 35.394531zm0 0" fill="#ffeb99"/><path d="m45.582031 329.546875c-21.265625 21.265625-33.882812 49.671875-35.394531 79.707031l-2.636719 52.207032c-1.222656 24.230468 18.757813 44.210937 42.988281 42.988281l22.296876-1.125c-2.515626-28.6875.695312-57.9375 4.292968-79.148438 3.292969-19.40625 12.554688-37.296875 26.472656-51.21875l107.367188-107.363281c28.050781-28.050781 71.136719-35.136719 106.320312-16.804688 21.308594 11.101563 42.46875 18.472657 59.539063 23.253907l55.183594-55.183594-136.871094-136.875zm0 0" fill="#ffde55"/><path d="m387.652344 239.480469-115.136719-115.132813c-18.417969-18.421875-18.417969-48.566406 0-66.984375 18.421875-18.421875 48.566406-18.421875 66.988281 0l115.132813 115.132813c18.421875 18.421875 18.421875 48.566406 0 66.984375-18.417969 18.421875-48.5625 18.421875-66.984375 0zm0 0" fill="#eaeaea"/><path d="m330.519531 115.363281c18.421875-18.421875 48.5625-18.421875 66.984375 0l-58-58c-18.421875-18.421875-48.566406-18.421875-66.988281 0-18.417969 18.417969-18.417969 48.5625 0 66.984375l58.003906 58c-18.421875-18.417968-18.421875-48.5625 0-66.984375zm0 0" fill="#d8d7da"/><path d="m59.523438 315.605469-13.941407 13.941406c-21.265625 21.265625-33.882812 49.671875-35.394531 79.707031l-2.636719 52.207032c-1.222656 24.230468 18.757813 44.210937 42.988281 42.988281l52.207032-2.632813c30.035156-1.515625 58.441406-14.128906 79.707031-35.398437l13.941406-13.941407zm0 0" fill="#ffdaaa"/><path d="m77.128906 424.175781c3.292969-19.40625 12.554688-37.296875 26.472656-51.21875l6.636719-6.636719-50.714843-50.714843-13.941407 13.9375c-21.265625 21.269531-33.882812 49.671875-35.394531 79.710937l-2.636719 52.207032c-1.222656 24.230468 18.757813 44.207031 42.988281 42.988281l22.296876-1.125c-2.515626-28.691407.695312-57.9375 4.292968-79.148438zm0 0" fill="#ffc477"/><path d="m12.824219 389.640625c-1.394531 6.417969-2.304688 12.972656-2.636719 19.613281l-2.636719 52.207032c-1.222656 24.230468 18.757813 44.207031 42.988281 42.988281l52.207032-2.636719c6.640625-.332031 13.21875-1.214844 19.640625-2.609375zm0 0" fill="#acabb1"/><path d="m73.582031 450.398438-60.785156-60.789063c-1.394531 6.421875-2.277344 13.003906-2.609375 19.644531l-2.636719 52.207032c-1.222656 24.230468 18.757813 44.207031 42.988281 42.988281l22.296876-1.125c-1.589844-18.148438-.894532-36.507813.746093-52.925781zm0 0" fill="#898890"/><path d="m459.941406 244.785156c21.394532-21.390625 21.394532-56.199218 0-77.59375l-115.132812-115.132812c-1.890625-1.890625-3.890625-3.605469-5.972656-5.160156l14.796874-14.796876c22.808594-22.808593 59.921876-22.808593 82.730469 0l43.535157 43.535157c21.785156 21.785156 22.90625 56.925781 2.558593 80.007812-2.738281 3.105469-2.441406 7.835938.667969 10.585938 3.105469 2.738281 7.847656 2.441406 10.585938-.667969 25.574218-29.003906 24.167968-73.164062-3.203126-100.53125l-43.539062-43.539062c-28.65625-28.65625-75.285156-28.65625-103.941406 0l-17.9375 17.9375c-19.480469-7.191407-42.253906-2.992188-57.875 12.628906s-19.820313 38.394531-12.628906 57.875l-214.308594 214.308594c-22.621094 22.621093-35.96875 52.679687-37.582032 84.632812l-2.632812 52.207031c-.691406 13.664063 4.460938 27.046875 14.132812 36.71875 9.675782 9.675781 23.058594 14.828125 36.722657 14.136719l52.207031-2.632812c31.953125-1.613282 62.011719-14.960938 84.632812-37.582032l214.308594-214.308594c19.484375 7.191407 42.253906 2.992188 57.875-12.628906zm-335.203125 246.160156-57.519531-57.519531c-2.929688-2.929687-7.679688-2.929687-10.609375 0-2.929687 2.929688-2.929687 7.679688 0 10.609375l49.992187 49.988282c-1.410156.125-56.441406 2.933593-56.441406 2.933593-9.4375.476563-18.675781-3.082031-25.355468-9.761719-6.679688-6.679687-10.238282-15.921874-9.761719-25.355468 0 0 2.808593-55.035156 2.929687-56.441406l16.316406 16.316406c2.929688 2.925781 7.675782 2.925781 10.605469 0 2.929688-2.929688 2.929688-7.679688 0-10.609375l-23.84375-23.84375c7.710938-36.484375 38.46875-61.050781 38.46875-61.050781l126.265625 126.265624c.003906 0-25.089844 30.664063-61.046875 38.46875zm71.65625-49.074218-126.265625-126.265625 191.925782-191.925781c1.554687 2.082031 3.269531 4.082031 5.160156 5.972656l115.132812 115.132812c1.890625 1.890625 3.890625 3.605469 5.972656 5.160156zm196.5625-207.691406-115.136719-115.136719c-15.542968-15.542969-15.542968-40.835938 0-56.378907 15.542969-15.542968 40.835938-15.542968 56.378907 0l115.136719 115.136719c15.542968 15.542969 15.542968 40.835938 0 56.378907-15.546876 15.542968-40.835938 15.542968-56.378907 0zm0 0"/></svg>