<svg height="512pt" viewBox="-58 0 511 512" width="512pt" xmlns="http://www.w3.org/2000/svg"><path d="m176.929688 313.570312c-16.65625 0-30.285157-13.625-30.285157-30.285156v-149.0625c0-16.660156 13.628907-30.285156 30.285157-30.285156 16.660156 0 30.285156 13.625 30.285156 30.285156v149.0625c0 16.660156-13.625 30.285156-30.285156 30.285156zm0 0" fill="#ffcfc2"/><path d="m166.320312 449.550781-97.542968-110.003906c-11.84375-12.910156-13.917969-30.15625-2.992188-42.726563 10.929688-12.574218 30.15625-13.917968 42.726563-2.992187l83.835937 72.863281zm0 0" fill="#ffcfc2"/><path d="m110.027344 386.066406 56.292968 63.484375 26.027344-82.859375-63.535156-55.21875c-5.945312 16.21875-15.132812 41.574219-18.785156 74.59375zm0 0" fill="#ffbfb0"/><path d="m237.5 313.570312c-16.65625 0-30.285156-13.625-30.285156-30.285156v-31.320312c0-16.65625 13.628906-30.285156 30.285156-30.285156s30.285156 13.628906 30.285156 30.285156v31.320312c0 16.660156-13.628906 30.285156-30.285156 30.285156zm0 0" fill="#ffbfb0"/><path d="m298.070312 313.570312c-16.65625 0-30.285156-13.625-30.285156-30.285156v-31.320312c0-16.65625 13.628906-30.285156 30.285156-30.285156s30.285157 13.628906 30.285157 30.285156v31.320312c0 16.660156-13.628907 30.285156-30.285157 30.285156zm0 0" fill="#ffcfc2"/><path d="m358.640625 313.570312c-16.65625 0-30.285156-13.625-30.285156-30.285156v-31.320312c0-16.65625 13.628906-30.285156 30.285156-30.285156s30.285156 13.628906 30.285156 30.285156v31.320312c0 16.660156-13.628906 30.285156-30.285156 30.285156zm0 0" fill="#ffbfb0"/><path d="m267.785156 504.5c-66.902344 0-121.140625-54.234375-121.140625-121.140625v-106.898437h242.28125v106.898437c0 66.902344-54.234375 121.140625-121.140625 121.140625zm0 0" fill="#ffe2d9"/><path d="m105.074219 104.261719c-6.742188 6.742187-17.773438 6.742187-24.515625 0l-43.433594-43.4375c-6.738281-6.738281-6.738281-17.769531 0-24.511719 6.742188-6.742188 17.773438-6.742188 24.515625 0l43.433594 43.433594c6.742187 6.742187 6.742187 17.773437 0 24.515625zm0 0" fill="#ffde55"/><path d="m76.378906 165.496094c0 9.535156-7.800781 17.335937-17.335937 17.335937h-33.707031c-9.535157 0-17.335938-7.800781-17.335938-17.335937 0-9.53125 7.800781-17.332032 17.335938-17.332032h33.707031c9.535156 0 17.335937 7.800782 17.335937 17.332032zm0 0" fill="#ffeb99"/><path d="m176.929688 75.878906c-9.53125 0-17.332032-7.800781-17.332032-17.335937v-33.707031c0-9.535157 7.800782-17.335938 17.332032-17.335938 9.535156 0 17.335937 7.800781 17.335937 17.335938v33.707031c0 9.535156-7.800781 17.335937-17.335937 17.335937zm0 0" fill="#ffeb99"/><path d="m248.789062 104.261719c6.742188 6.742187 17.773438 6.742187 24.515626 0l43.433593-43.4375c6.742188-6.742188 6.742188-17.773438 0-24.515625-6.742187-6.742188-17.773437-6.742188-24.515625 0l-43.433594 43.4375c-6.742187 6.742187-6.742187 17.773437 0 24.515625zm0 0" fill="#ffde55"/><path d="m277.484375 165.496094c0 9.535156 7.800781 17.335937 17.335937 17.335937h33.707032c9.535156 0 17.335937-7.800781 17.335937-17.335937 0-9.53125-7.800781-17.332032-17.335937-17.332032h-33.707032c-9.535156 0-17.335937 7.800782-17.335937 17.332032zm0 0" fill="#ffeb99"/><path d="m75.257812 109.5625c4.839844 4.84375 20.304688 15.289062 35.121094 0 9.679688-9.683594 9.679688-25.4375 0-35.121094l-43.4375-43.433594c-9.679687-9.683593-25.53125-9.777343-35.121094 0-14.253906 14.53125-4.675781 30.441407 0 35.121094zm-32.828124-67.949219c5.753906-5.839843 11.992187-1.917969 13.90625 0l43.433593 43.433594c3.835938 3.835937 3.835938 10.074219.003907 13.910156-3.835938 3.835938-10.074219 3.839844-13.910157 0l-43.433593-43.4375c-1.84375-1.839843-5.753907-8.066406 0-13.90625zm0 0"/><path d="m83.878906 165.496094c0-13.691406-11.140625-24.832032-24.835937-24.832032h-33.707031c-13.695313 0-24.835938 11.140626-24.835938 24.832032 0 13.695312 11.140625 24.835937 24.835938 24.835937h33.707031c13.695312 0 24.835937-11.140625 24.835937-24.835937zm-68.378906 0c0-5.421875 4.410156-9.832032 9.835938-9.832032h33.707031c5.421875 0 9.835937 4.410157 9.835937 9.832032 0 5.425781-4.414062 9.835937-9.835937 9.835937h-33.707031c-5.425782 0-9.835938-4.410156-9.835938-9.835937zm0 0"/><path d="m176.929688 83.378906c13.695312 0 24.835937-11.140625 24.835937-24.835937v-33.707031c0-13.695313-11.140625-24.835938-24.835937-24.835938-13.691407 0-24.832032 11.140625-24.832032 24.835938v33.707031c0 13.695312 11.140625 24.835937 24.832032 24.835937zm-9.832032-58.542968c0-5.425782 4.410156-9.835938 9.835938-9.835938 5.421875 0 9.832031 4.410156 9.832031 9.835938v33.707031c0 5.421875-4.410156 9.835937-9.832031 9.835937-5.425782 0-9.835938-4.414062-9.835938-9.835937zm0 0"/><path d="m278.605469 109.5625 43.433593-43.433594c13.90625-14.046875 4.679688-30.445312 0-35.121094-9.683593-9.683593-25.4375-9.683593-35.121093 0-2.929688 2.925782-2.929688 7.675782 0 10.605469 2.929687 2.929688 7.679687 2.929688 10.609375 0 3.832031-3.835937 10.074218-3.832031 13.90625 0 1.84375 1.84375 6.042968 8.160157 0 13.90625l-43.433594 43.4375c-3.832031 3.835938-10.074219 3.832031-13.90625 0-3.835938-3.835937-3.835938-10.074219 0-13.90625l22.273438-22.277343c2.929687-2.929688 2.929687-7.679688 0-10.609376-2.925782-2.925781-7.675782-2.925781-10.605469 0l-22.277344 22.277344c-9.679687 9.683594-9.679687 25.441406 0 35.125 4.839844 4.839844 20.324219 13.5 35.121094-.003906zm0 0"/><path d="m294.820312 140.664062c-13.695312 0-24.835937 11.140626-24.835937 24.832032 0 13.695312 11.140625 24.835937 24.835937 24.835937h33.707032c13.695312 0 24.835937-11.140625 24.835937-24.835937 0-13.691406-11.140625-24.832032-24.835937-24.832032zm43.542969 24.832032c0 5.425781-4.414062 9.835937-9.835937 9.835937h-33.707032c-5.425781 0-9.835937-4.410156-9.835937-9.835937 0-5.421875 4.414063-9.832032 9.835937-9.832032h33.707032c5.421875 0 9.835937 4.410157 9.835937 9.832032zm0 0"/><path d="m358.640625 214.179688c-12.378906 0-23.386719 5.984374-30.285156 15.214843-6.894531-9.230469-17.902344-15.214843-30.285157-15.214843-12.378906 0-23.386718 5.984374-30.285156 15.214843-6.894531-9.230469-17.902344-15.214843-30.285156-15.214843-8.550781 0-16.445312 2.859374-22.785156 7.667968v-87.625c0-20.835937-16.949219-37.785156-37.785156-37.785156-20.832032 0-37.785157 16.949219-37.785157 37.785156v176.292969l-25.714843-22.347656c-25.65625-20.542969-46.707032-3.859375-53.304688 3.734375-12.945312 14.890625-11.675781 36.539062 3.082031 52.664062l14.878907 16.78125c3.636718 3.792969 9.160156 1.902344 10.589843.636719 3.097657-2.75 3.382813-7.488281.632813-10.585937l-14.917969-16.828126c-.03125-.03125-.058594-.0625-.085937-.09375-9.769532-10.648437-10.96875-23.566406-2.859376-32.734374 12.726563-14.390626 27.578126-6.222657 32.144532-2.253907l35.554687 30.902344v52.96875c0 9.476563 1.039063 18.714844 2.996094 27.617187l-32.832031-37.023437c-2.746094-3.101563-7.488282-3.386719-10.585938-.636719-3.101562 2.746094-3.382812 7.488282-.636718 10.585938l62.503906 70.492187c23.066406 34.691407 62.503906 57.605469 107.195312 57.605469 70.933594 0 128.640625-57.707031 128.640625-128.640625v-131.394531c0-20.835938-16.949219-37.785156-37.785156-37.785156zm0 15c12.5625 0 22.785156 10.222656 22.785156 22.785156v16.996094h-45.570312v-16.996094c0-12.5625 10.222656-22.785156 22.785156-22.785156zm-60.570313 0c12.566407 0 22.785157 10.222656 22.785157 22.785156v16.996094h-45.570313v-16.996094c0-12.5625 10.222656-22.785156 22.785156-22.785156zm-60.570312 0c12.566406 0 22.785156 10.222656 22.785156 22.785156v16.996094h-45.570312v-16.996094c0-12.5625 10.222656-22.785156 22.785156-22.785156zm-60.570312-117.742188c12.566406 0 22.785156 10.21875 22.785156 22.785156v134.738282h-45.570313v-134.738282c0-12.566406 10.222657-22.785156 22.785157-22.785156zm204.496093 271.921875c0 62.660156-50.980469 113.640625-113.640625 113.640625s-113.640625-50.976562-113.640625-113.640625v-99.398437h227.28125zm0 0"/></svg>