<svg height="512pt" viewBox="0 0 512 512" width="512pt" xmlns="http://www.w3.org/2000/svg"><path d="m504.5 256c0 137.242188-111.257812 248.5-248.5 248.5s-248.5-111.257812-248.5-248.5 111.257812-248.5 248.5-248.5 248.5 111.257812 248.5 248.5zm0 0" fill="#ff929f"/><path d="m229.980469 145.316406c51.125-39.453125 76.753906-95.589844 88.414062-129.917968-19.9375-5.15625-40.84375-7.898438-62.394531-7.898438-137.242188 0-248.5 111.257812-248.5 248.5s111.257812 248.5 248.5 248.5c10.285156 0 20.429688-.625 30.386719-1.839844-108.003907-90.65625-124.167969-183.746094-117.097657-248.828125 4.660157-42.886719 26.542969-82.15625 60.691407-108.515625zm0 0" fill="#ff737d"/><path d="m331.691406 242.90625 57.597656-57.597656c17.214844-17.214844 17.214844-45.382813 0-62.59375-17.214843-17.214844-45.382812-17.214844-62.597656 0l-57.597656 57.597656c-7.230469 7.230469-18.953125 7.230469-26.1875 0l-57.597656-57.597656c-17.210938-17.214844-45.378906-17.214844-62.59375 0-17.214844 17.210937-17.214844 45.378906 0 62.59375l57.597656 57.597656c7.230469 7.230469 7.230469 18.957031 0 26.1875l-57.597656 57.597656c-17.214844 17.214844-17.214844 45.382813 0 62.59375 17.214844 17.214844 45.382812 17.214844 62.59375 0l57.597656-57.597656c7.234375-7.230469 18.957031-7.230469 26.1875 0l57.597656 57.597656c17.214844 17.214844 45.382813 17.214844 62.597656 0 17.214844-17.210937 17.214844-45.378906 0-62.59375l-57.597656-57.597656c-7.234375-7.230469-7.234375-18.957031 0-26.1875zm0 0" fill="#fff"/><path d="m218.082031 155.484375-32.773437-32.773437c-17.210938-17.214844-45.378906-17.214844-62.59375 0-17.214844 17.214843-17.214844 45.382812 0 62.597656l49.757812 49.757812c7.042969-30.402344 22.890625-58.132812 45.609375-79.582031zm0 0" fill="#bdfaff"/><path d="m185.308594 389.285156 5.726562-5.722656c-17-36.753906-22.996094-71.527344-23.171875-102.023438l-45.152343 45.152344c-17.214844 17.214844-17.214844 45.382813 0 62.59375 17.214843 17.214844 45.382812 17.214844 62.597656 0zm0 0" fill="#ccf8ff"/><path d="m256 512c-68.378906 0-132.667969-26.628906-181.019531-74.980469-48.351563-48.351562-74.980469-112.640625-74.980469-181.019531s26.628906-132.667969 74.980469-181.019531c48.351562-48.351563 112.640625-74.980469 181.019531-74.980469 45.660156 0 90.480469 12.171875 129.621094 35.195312 37.988281 22.347657 69.769531 54.304688 91.902344 92.410157 2.082031 3.582031.863281 8.171875-2.71875 10.253906-3.582032 2.082031-8.171876.863281-10.253907-2.71875-20.839843-35.882813-50.761719-65.972656-86.53125-87.015625-36.839843-21.671875-79.03125-33.125-122.019531-33.125-64.375 0-124.894531 25.066406-170.414062 70.585938-45.519532 45.519531-70.585938 106.039062-70.585938 170.414062s25.066406 124.894531 70.585938 170.414062c45.519531 45.519532 106.039062 70.585938 170.414062 70.585938s124.894531-25.066406 170.414062-70.585938c45.519532-45.519531 70.585938-106.039062 70.585938-170.414062 0-31.632812-6.03125-62.378906-17.929688-91.386719-1.570312-3.832031.261719-8.214843 4.09375-9.785156 3.832032-1.574219 8.214844.261719 9.785157 4.09375 12.640625 30.820313 19.050781 63.484375 19.050781 97.078125 0 68.378906-26.628906 132.667969-74.980469 181.019531-48.351562 48.351563-112.640625 74.980469-181.019531 74.980469zm0 0"/><path d="m321.386719 394.589844-57.597657-57.597656c-4.292968-4.292969-11.285156-4.296876-15.578124 0l-57.597657 57.597656c-20.183593 20.183594-53.023437 20.183594-73.203125 0-20.183594-20.183594-20.183594-53.023438 0-73.203125 2.929688-2.929688 7.675782-2.929688 10.605469 0 2.929687 2.929687 2.929687 7.675781 0 10.605469-6.910156 6.910156-19.171875 33.777343 0 51.988281 19.171875 18.214843 45.082031 6.910156 51.988281 0l57.597656-57.597657c10.144532-10.140624 26.652344-10.140624 36.792969 0l57.597657 57.597657c6.910156 6.910156 32.285156 20.734375 51.992187 0 22.214844-23.367188 6.910156-45.078125 0-51.988281l-57.597656-57.597657c-10.144531-10.144531-10.144531-26.648437 0-36.792969l57.597656-57.597656c6.910156-6.910156 19.304687-32.777344 0-51.992187-22.851563-22.746094-45.082031-6.90625-51.992187 0l-57.597657 57.597656c-10.140625 10.144531-26.648437 10.144531-36.792969 0l-57.597656-57.597656c-6.90625-6.90625-30.34375-19.542969-51.988281 0-21.648437 19.546875-6.910156 45.082031 0 51.992187l57.597656 57.597656c10.144531 10.144532 10.144531 26.648438 0 36.792969l-35.464843 35.460938c-2.929688 2.929687-7.675782 2.929687-10.605469 0-2.929688-2.929688-2.929688-7.675781 0-10.605469l35.464843-35.460938c4.292969-4.296874 4.292969-11.285156 0-15.582031l-57.597656-57.597656c-20.183594-20.179687-20.183594-53.019531 0-73.203125s53.019532-20.183594 73.203125 0l57.597657 57.597656c4.296874 4.296875 11.285156 4.296875 15.578124 0l57.601563-57.597656c20.179687-20.179688 53.019531-20.179688 73.203125 0 20.179688 20.183594 20.179688 53.023438 0 73.203125l-57.601562 57.601563c-4.292969 4.292968-4.292969 11.28125 0 15.578124l57.597656 57.597657c20.183594 20.183593 20.183594 53.019531 0 73.203125-10.089844 10.09375-43.011719 29.859375-73.203125 0zm0 0"/></svg>